<mxfile host="app.diagrams.net" modified="2022-12-25T14:39:45.003Z" agent="5.0 (Macintosh; Intel Mac OS X 10_15_7) AppleWebKit/605.1.15 (KHTML, like Gecko) Version/16.1 Safari/605.1.15" version="20.7.4" etag="a7uvs6yQllpX-f7HG2uf" type="github">
  <diagram id="pNYmqm0k6kziZwPwJpli" name="Seite-1">
    <mxGraphModel dx="1153" dy="1047" grid="0" gridSize="10" guides="1" tooltips="1" connect="1" arrows="1" fold="1" page="0" pageScale="1" pageWidth="827" pageHeight="1169" background="#FFFFFF" math="0" shadow="0">
      <root>
        <mxCell id="0" />
        <mxCell id="1" parent="0" />
        <mxCell id="jASPlw7Dt9lBdFrN7tMw-1" value="Presentation Layer" style="rounded=0;whiteSpace=wrap;html=1;fontStyle=1;fontSize=12;fillColor=#fff2cc;strokeColor=#d6b656;" vertex="1" parent="1">
          <mxGeometry y="25" width="120" height="95" as="geometry" />
        </mxCell>
        <mxCell id="jASPlw7Dt9lBdFrN7tMw-2" value="Push Benachrictigung" style="rounded=1;whiteSpace=wrap;html=1;fontSize=12;arcSize=12;" vertex="1" parent="1">
          <mxGeometry x="160" y="40" width="120" height="40" as="geometry" />
        </mxCell>
        <mxCell id="jASPlw7Dt9lBdFrN7tMw-3" value="Anruf-Anzeige" style="rounded=1;whiteSpace=wrap;html=1;fontSize=12;" vertex="1" parent="1">
          <mxGeometry x="360" y="38.75" width="80" height="38.75" as="geometry" />
        </mxCell>
        <mxCell id="jASPlw7Dt9lBdFrN7tMw-4" value="Video Player" style="rounded=1;whiteSpace=wrap;html=1;fontSize=12;" vertex="1" parent="1">
          <mxGeometry x="520" y="41.25" width="120" height="38.75" as="geometry" />
        </mxCell>
        <mxCell id="jASPlw7Dt9lBdFrN7tMw-5" value="Klingel/ AnzeigeMenu" style="rounded=1;whiteSpace=wrap;html=1;fontSize=12;" vertex="1" parent="1">
          <mxGeometry x="720" y="37.5" width="80" height="40" as="geometry" />
        </mxCell>
        <mxCell id="jASPlw7Dt9lBdFrN7tMw-6" value="Türsteurung anzeige" style="rounded=1;whiteSpace=wrap;html=1;fontSize=12;" vertex="1" parent="1">
          <mxGeometry x="920" y="40.63" width="80" height="40" as="geometry" />
        </mxCell>
        <mxCell id="jASPlw7Dt9lBdFrN7tMw-7" value="Video Stream" style="rounded=1;whiteSpace=wrap;html=1;fontSize=12;" vertex="1" parent="1">
          <mxGeometry x="160" y="240" width="120" height="40" as="geometry" />
        </mxCell>
        <mxCell id="jASPlw7Dt9lBdFrN7tMw-8" value="Business/ Logic layer" style="rounded=0;whiteSpace=wrap;html=1;fontSize=12;fillColor=#fff2cc;strokeColor=#d6b656;" vertex="1" parent="1">
          <mxGeometry y="200" width="120" height="120" as="geometry" />
        </mxCell>
        <mxCell id="jASPlw7Dt9lBdFrN7tMw-9" value="Audio Stream" style="rounded=1;whiteSpace=wrap;html=1;fontSize=12;" vertex="1" parent="1">
          <mxGeometry x="310" y="240" width="80" height="40" as="geometry" />
        </mxCell>
        <mxCell id="jASPlw7Dt9lBdFrN7tMw-10" value="Tür Steuerung" style="rounded=1;whiteSpace=wrap;html=1;fontSize=12;" vertex="1" parent="1">
          <mxGeometry x="440" y="240" width="80" height="40" as="geometry" />
        </mxCell>
        <mxCell id="jASPlw7Dt9lBdFrN7tMw-11" value="Klingel Verwaltung" style="rounded=1;whiteSpace=wrap;html=1;fontSize=12;" vertex="1" parent="1">
          <mxGeometry x="600" y="240" width="80" height="40" as="geometry" />
        </mxCell>
        <mxCell id="jASPlw7Dt9lBdFrN7tMw-12" value="Anruf Steurung" style="rounded=1;whiteSpace=wrap;html=1;fontSize=12;" vertex="1" parent="1">
          <mxGeometry x="760" y="240" width="80" height="40" as="geometry" />
        </mxCell>
        <mxCell id="jASPlw7Dt9lBdFrN7tMw-13" value="Push Service" style="rounded=1;whiteSpace=wrap;html=1;fontSize=12;" vertex="1" parent="1">
          <mxGeometry x="960" y="240" width="80" height="40" as="geometry" />
        </mxCell>
        <mxCell id="jASPlw7Dt9lBdFrN7tMw-14" value="Persistence Layer" style="rounded=0;whiteSpace=wrap;html=1;fontSize=12;fillColor=#fff2cc;strokeColor=#d6b656;" vertex="1" parent="1">
          <mxGeometry y="400" width="120" height="120" as="geometry" />
        </mxCell>
        <mxCell id="jASPlw7Dt9lBdFrN7tMw-15" value="SIP Schnittstelle" style="rounded=1;whiteSpace=wrap;html=1;fontSize=12;" vertex="1" parent="1">
          <mxGeometry x="160" y="440" width="150" height="45" as="geometry" />
        </mxCell>
        <mxCell id="jASPlw7Dt9lBdFrN7tMw-16" value="Database" style="rounded=0;whiteSpace=wrap;html=1;fontSize=12;fillColor=#fff2cc;strokeColor=#d6b656;" vertex="1" parent="1">
          <mxGeometry y="640" width="120" height="120" as="geometry" />
        </mxCell>
        <mxCell id="jASPlw7Dt9lBdFrN7tMw-17" value="" style="shape=datastore;whiteSpace=wrap;html=1;fontSize=12;" vertex="1" parent="1">
          <mxGeometry x="160" y="650" width="120" height="110" as="geometry" />
        </mxCell>
        <mxCell id="jASPlw7Dt9lBdFrN7tMw-21" value="" style="endArrow=block;dashed=1;endFill=0;endSize=12;html=1;rounded=0;fontSize=12;exitX=0.5;exitY=0;exitDx=0;exitDy=0;strokeColor=#FF0000;" edge="1" parent="1" source="jASPlw7Dt9lBdFrN7tMw-2">
          <mxGeometry width="160" relative="1" as="geometry">
            <mxPoint x="160" y="10" as="sourcePoint" />
            <mxPoint x="220" as="targetPoint" />
          </mxGeometry>
        </mxCell>
        <mxCell id="jASPlw7Dt9lBdFrN7tMw-22" value="" style="endArrow=block;dashed=1;endFill=0;endSize=12;html=1;rounded=0;fontSize=12;strokeColor=#000000;entryX=0.75;entryY=0;entryDx=0;entryDy=0;" edge="1" parent="1" target="jASPlw7Dt9lBdFrN7tMw-2">
          <mxGeometry width="160" relative="1" as="geometry">
            <mxPoint x="250" as="sourcePoint" />
            <mxPoint x="230" y="10" as="targetPoint" />
            <Array as="points">
              <mxPoint x="250" y="40" />
            </Array>
          </mxGeometry>
        </mxCell>
        <mxCell id="jASPlw7Dt9lBdFrN7tMw-23" value="" style="endArrow=block;dashed=1;endFill=0;endSize=12;html=1;rounded=0;fontSize=12;strokeColor=#000000;entryX=0;entryY=0.5;entryDx=0;entryDy=0;exitX=1;exitY=0.5;exitDx=0;exitDy=0;" edge="1" parent="1" source="jASPlw7Dt9lBdFrN7tMw-2" target="jASPlw7Dt9lBdFrN7tMw-3">
          <mxGeometry width="160" relative="1" as="geometry">
            <mxPoint x="310" y="37.5" as="sourcePoint" />
            <mxPoint x="310" y="77.5" as="targetPoint" />
            <Array as="points" />
          </mxGeometry>
        </mxCell>
        <mxCell id="jASPlw7Dt9lBdFrN7tMw-24" value="" style="endArrow=block;dashed=1;endFill=0;endSize=12;html=1;rounded=0;fontSize=12;strokeColor=#000000;" edge="1" parent="1">
          <mxGeometry width="160" relative="1" as="geometry">
            <mxPoint x="440" y="60" as="sourcePoint" />
            <mxPoint x="520" y="59.91" as="targetPoint" />
            <Array as="points" />
          </mxGeometry>
        </mxCell>
        <mxCell id="jASPlw7Dt9lBdFrN7tMw-26" value="" style="endArrow=block;dashed=1;endFill=0;endSize=12;html=1;rounded=0;strokeColor=#000000;fontSize=12;exitX=0.333;exitY=1;exitDx=0;exitDy=0;exitPerimeter=0;" edge="1" parent="1" source="jASPlw7Dt9lBdFrN7tMw-4">
          <mxGeometry width="160" relative="1" as="geometry">
            <mxPoint x="330" y="130" as="sourcePoint" />
            <mxPoint x="200" y="240" as="targetPoint" />
            <Array as="points">
              <mxPoint x="560" y="160" />
              <mxPoint x="200" y="160" />
            </Array>
          </mxGeometry>
        </mxCell>
        <mxCell id="jASPlw7Dt9lBdFrN7tMw-27" value="" style="endArrow=block;dashed=1;endFill=0;endSize=12;html=1;rounded=0;strokeColor=#000000;fontSize=12;exitX=0.333;exitY=1;exitDx=0;exitDy=0;entryX=0.25;entryY=0;entryDx=0;entryDy=0;exitPerimeter=0;" edge="1" parent="1" source="jASPlw7Dt9lBdFrN7tMw-7" target="jASPlw7Dt9lBdFrN7tMw-15">
          <mxGeometry width="160" relative="1" as="geometry">
            <mxPoint x="210" y="370" as="sourcePoint" />
            <mxPoint x="370" y="370" as="targetPoint" />
          </mxGeometry>
        </mxCell>
        <mxCell id="jASPlw7Dt9lBdFrN7tMw-28" value="" style="endArrow=block;dashed=1;endFill=0;endSize=12;html=1;rounded=0;strokeColor=#000000;fontSize=12;exitX=0.25;exitY=1;exitDx=0;exitDy=0;" edge="1" parent="1" source="jASPlw7Dt9lBdFrN7tMw-15">
          <mxGeometry width="160" relative="1" as="geometry">
            <mxPoint x="200" y="490" as="sourcePoint" />
            <mxPoint x="198" y="650" as="targetPoint" />
            <Array as="points" />
          </mxGeometry>
        </mxCell>
        <mxCell id="jASPlw7Dt9lBdFrN7tMw-29" value="" style="endArrow=block;dashed=1;endFill=0;endSize=12;html=1;rounded=0;strokeColor=#FF0000;fontSize=12;exitX=0.5;exitY=0;exitDx=0;exitDy=0;entryX=0.433;entryY=0.978;entryDx=0;entryDy=0;entryPerimeter=0;" edge="1" parent="1" source="jASPlw7Dt9lBdFrN7tMw-17" target="jASPlw7Dt9lBdFrN7tMw-15">
          <mxGeometry width="160" relative="1" as="geometry">
            <mxPoint x="380" y="610" as="sourcePoint" />
            <mxPoint x="230" y="480" as="targetPoint" />
          </mxGeometry>
        </mxCell>
        <mxCell id="jASPlw7Dt9lBdFrN7tMw-30" value="" style="endArrow=block;dashed=1;endFill=0;endSize=12;html=1;rounded=0;strokeColor=#FF0000;fontSize=12;exitX=0.5;exitY=0;exitDx=0;exitDy=0;entryX=0.667;entryY=1.05;entryDx=0;entryDy=0;entryPerimeter=0;" edge="1" parent="1" source="jASPlw7Dt9lBdFrN7tMw-15" target="jASPlw7Dt9lBdFrN7tMw-7">
          <mxGeometry width="160" relative="1" as="geometry">
            <mxPoint x="222" y="440" as="sourcePoint" />
            <mxPoint x="222" y="280" as="targetPoint" />
          </mxGeometry>
        </mxCell>
        <mxCell id="jASPlw7Dt9lBdFrN7tMw-31" value="" style="endArrow=block;dashed=1;endFill=0;endSize=12;html=1;rounded=0;strokeColor=#FF0000;fontSize=12;exitX=0.658;exitY=-0.025;exitDx=0;exitDy=0;exitPerimeter=0;entryX=0.683;entryY=1.052;entryDx=0;entryDy=0;entryPerimeter=0;" edge="1" parent="1" source="jASPlw7Dt9lBdFrN7tMw-7" target="jASPlw7Dt9lBdFrN7tMw-4">
          <mxGeometry x="1" y="91" width="160" relative="1" as="geometry">
            <mxPoint x="230.00000000000006" y="239.99999999999997" as="sourcePoint" />
            <mxPoint x="600" y="80" as="targetPoint" />
            <Array as="points">
              <mxPoint x="240" y="200" />
              <mxPoint x="602" y="200" />
            </Array>
            <mxPoint x="72" y="-88" as="offset" />
          </mxGeometry>
        </mxCell>
        <mxCell id="jASPlw7Dt9lBdFrN7tMw-32" value="" style="endArrow=block;dashed=1;endFill=0;endSize=12;html=1;rounded=0;strokeColor=#333333;fontSize=12;exitX=0.5;exitY=1;exitDx=0;exitDy=0;entryX=0.625;entryY=0;entryDx=0;entryDy=0;entryPerimeter=0;" edge="1" parent="1" source="jASPlw7Dt9lBdFrN7tMw-4" target="jASPlw7Dt9lBdFrN7tMw-9">
          <mxGeometry width="160" relative="1" as="geometry">
            <mxPoint x="570" y="110" as="sourcePoint" />
            <mxPoint x="730" y="110" as="targetPoint" />
            <Array as="points">
              <mxPoint x="480" y="80" />
              <mxPoint x="480" y="120" />
              <mxPoint x="360" y="120" />
              <mxPoint x="360" y="190" />
            </Array>
          </mxGeometry>
        </mxCell>
        <mxCell id="jASPlw7Dt9lBdFrN7tMw-33" value="" style="endArrow=block;dashed=1;endFill=0;endSize=12;html=1;rounded=0;strokeColor=#333333;fontSize=12;exitX=0.425;exitY=1.05;exitDx=0;exitDy=0;exitPerimeter=0;" edge="1" parent="1" source="jASPlw7Dt9lBdFrN7tMw-9">
          <mxGeometry width="160" relative="1" as="geometry">
            <mxPoint x="340" y="280" as="sourcePoint" />
            <mxPoint x="300" y="440" as="targetPoint" />
            <Array as="points">
              <mxPoint x="340" y="400" />
              <mxPoint x="300" y="400" />
            </Array>
          </mxGeometry>
        </mxCell>
        <mxCell id="jASPlw7Dt9lBdFrN7tMw-34" value="" style="endArrow=block;dashed=1;endFill=0;endSize=12;html=1;rounded=0;strokeColor=#333333;fontSize=12;exitX=0.86;exitY=1.022;exitDx=0;exitDy=0;exitPerimeter=0;entryX=0.917;entryY=0.073;entryDx=0;entryDy=0;entryPerimeter=0;" edge="1" parent="1" source="jASPlw7Dt9lBdFrN7tMw-15" target="jASPlw7Dt9lBdFrN7tMw-17">
          <mxGeometry width="160" relative="1" as="geometry">
            <mxPoint x="520" y="560" as="sourcePoint" />
            <mxPoint x="680" y="560" as="targetPoint" />
          </mxGeometry>
        </mxCell>
        <mxCell id="jASPlw7Dt9lBdFrN7tMw-37" value="" style="endArrow=block;dashed=1;endFill=0;endSize=12;html=1;rounded=0;strokeColor=#FF0000;fontSize=12;exitX=0.667;exitY=0;exitDx=0;exitDy=0;exitPerimeter=0;entryX=0.7;entryY=1;entryDx=0;entryDy=0;entryPerimeter=0;" edge="1" parent="1" source="jASPlw7Dt9lBdFrN7tMw-17" target="jASPlw7Dt9lBdFrN7tMw-15">
          <mxGeometry width="160" relative="1" as="geometry">
            <mxPoint x="316" y="625" as="sourcePoint" />
            <mxPoint x="476" y="625" as="targetPoint" />
          </mxGeometry>
        </mxCell>
        <mxCell id="jASPlw7Dt9lBdFrN7tMw-38" value="" style="endArrow=block;dashed=1;endFill=0;endSize=12;html=1;rounded=0;strokeColor=#FF0000;fontSize=12;entryX=0.863;entryY=1.025;entryDx=0;entryDy=0;entryPerimeter=0;" edge="1" parent="1" target="jASPlw7Dt9lBdFrN7tMw-9">
          <mxGeometry width="160" relative="1" as="geometry">
            <mxPoint x="280" y="440" as="sourcePoint" />
            <mxPoint x="294.96" y="275" as="targetPoint" />
            <Array as="points">
              <mxPoint x="280" y="360" />
              <mxPoint x="380" y="360" />
              <mxPoint x="380" y="320" />
            </Array>
          </mxGeometry>
        </mxCell>
        <mxCell id="jASPlw7Dt9lBdFrN7tMw-39" value="" style="endArrow=block;dashed=1;endFill=0;endSize=12;html=1;rounded=0;strokeColor=#FF0000;fontSize=12;entryX=0.558;entryY=1.052;entryDx=0;entryDy=0;entryPerimeter=0;exitX=0.85;exitY=-0.025;exitDx=0;exitDy=0;exitPerimeter=0;" edge="1" parent="1" source="jASPlw7Dt9lBdFrN7tMw-9" target="jASPlw7Dt9lBdFrN7tMw-4">
          <mxGeometry width="160" relative="1" as="geometry">
            <mxPoint x="327.73" y="240" as="sourcePoint" />
            <mxPoint x="372.27" y="81" as="targetPoint" />
            <Array as="points">
              <mxPoint x="378" y="180" />
              <mxPoint x="450" y="180" />
              <mxPoint x="587" y="180" />
            </Array>
          </mxGeometry>
        </mxCell>
        <mxCell id="jASPlw7Dt9lBdFrN7tMw-40" value="" style="endArrow=block;dashed=1;endFill=0;endSize=12;html=1;rounded=0;strokeColor=#000000;fontSize=12;entryX=0;entryY=0.5;entryDx=0;entryDy=0;" edge="1" parent="1" target="jASPlw7Dt9lBdFrN7tMw-6">
          <mxGeometry width="160" relative="1" as="geometry">
            <mxPoint x="800" y="60" as="sourcePoint" />
            <mxPoint x="880" y="60" as="targetPoint" />
          </mxGeometry>
        </mxCell>
        <mxCell id="jASPlw7Dt9lBdFrN7tMw-41" value="" style="endArrow=block;dashed=1;endFill=0;endSize=12;html=1;rounded=0;strokeColor=#000000;fontSize=12;exitX=0;exitY=1;exitDx=0;exitDy=0;entryX=0.5;entryY=1;entryDx=0;entryDy=0;" edge="1" parent="1" source="jASPlw7Dt9lBdFrN7tMw-6" target="jASPlw7Dt9lBdFrN7tMw-10">
          <mxGeometry width="160" relative="1" as="geometry">
            <mxPoint x="920" y="120" as="sourcePoint" />
            <mxPoint x="480" y="280" as="targetPoint" />
            <Array as="points">
              <mxPoint x="920" y="360" />
              <mxPoint x="720" y="360" />
              <mxPoint x="480" y="360" />
            </Array>
          </mxGeometry>
        </mxCell>
        <mxCell id="jASPlw7Dt9lBdFrN7tMw-42" value="" style="endArrow=block;dashed=1;endFill=0;endSize=12;html=1;rounded=0;strokeColor=#FF3333;fontSize=12;exitX=0.5;exitY=0;exitDx=0;exitDy=0;entryX=0.5;entryY=1;entryDx=0;entryDy=0;" edge="1" parent="1" source="jASPlw7Dt9lBdFrN7tMw-10" target="jASPlw7Dt9lBdFrN7tMw-6">
          <mxGeometry width="160" relative="1" as="geometry">
            <mxPoint x="470" y="430" as="sourcePoint" />
            <mxPoint x="960" y="110" as="targetPoint" />
            <Array as="points">
              <mxPoint x="480" y="210" />
              <mxPoint x="960" y="210" />
            </Array>
          </mxGeometry>
        </mxCell>
        <mxCell id="jASPlw7Dt9lBdFrN7tMw-43" value="" style="endArrow=block;dashed=1;endFill=0;endSize=12;html=1;rounded=0;strokeColor=#000000;fontSize=12;exitX=0.5;exitY=1;exitDx=0;exitDy=0;entryX=0.5;entryY=0;entryDx=0;entryDy=0;" edge="1" parent="1" source="jASPlw7Dt9lBdFrN7tMw-5" target="jASPlw7Dt9lBdFrN7tMw-11">
          <mxGeometry width="160" relative="1" as="geometry">
            <mxPoint x="650" y="150" as="sourcePoint" />
            <mxPoint x="810" y="150" as="targetPoint" />
            <Array as="points">
              <mxPoint x="760" y="120" />
              <mxPoint x="640" y="120" />
            </Array>
          </mxGeometry>
        </mxCell>
        <mxCell id="jASPlw7Dt9lBdFrN7tMw-44" value="" style="endArrow=block;dashed=1;endFill=0;endSize=12;html=1;rounded=0;strokeColor=#FF3333;fontSize=12;exitX=0.75;exitY=0;exitDx=0;exitDy=0;entryX=0.625;entryY=1.013;entryDx=0;entryDy=0;entryPerimeter=0;" edge="1" parent="1" source="jASPlw7Dt9lBdFrN7tMw-11" target="jASPlw7Dt9lBdFrN7tMw-5">
          <mxGeometry width="160" relative="1" as="geometry">
            <mxPoint x="600" y="290" as="sourcePoint" />
            <mxPoint x="760" y="290" as="targetPoint" />
            <Array as="points">
              <mxPoint x="660" y="160" />
              <mxPoint x="770" y="160" />
            </Array>
          </mxGeometry>
        </mxCell>
        <mxCell id="jASPlw7Dt9lBdFrN7tMw-45" value="" style="endArrow=block;dashed=1;endFill=0;endSize=12;html=1;rounded=0;strokeColor=#000000;fontSize=12;" edge="1" parent="1">
          <mxGeometry width="160" relative="1" as="geometry">
            <mxPoint x="400" y="80" as="sourcePoint" />
            <mxPoint x="800" y="240" as="targetPoint" />
            <Array as="points">
              <mxPoint x="400" y="220" />
              <mxPoint x="800" y="220" />
            </Array>
          </mxGeometry>
        </mxCell>
        <mxCell id="jASPlw7Dt9lBdFrN7tMw-46" value="" style="endArrow=block;dashed=1;endFill=0;endSize=12;html=1;rounded=0;strokeColor=#000000;fontSize=12;exitX=0.5;exitY=1;exitDx=0;exitDy=0;entryX=0.607;entryY=-0.022;entryDx=0;entryDy=0;entryPerimeter=0;" edge="1" parent="1" source="jASPlw7Dt9lBdFrN7tMw-12" target="jASPlw7Dt9lBdFrN7tMw-15">
          <mxGeometry width="160" relative="1" as="geometry">
            <mxPoint x="720" y="320" as="sourcePoint" />
            <mxPoint x="251" y="436" as="targetPoint" />
            <Array as="points">
              <mxPoint x="800" y="320" />
              <mxPoint x="251" y="320" />
            </Array>
          </mxGeometry>
        </mxCell>
        <mxCell id="jASPlw7Dt9lBdFrN7tMw-47" value="" style="endArrow=block;dashed=1;endFill=0;endSize=12;html=1;rounded=0;strokeColor=#000000;fontSize=12;exitX=0.56;exitY=1.022;exitDx=0;exitDy=0;exitPerimeter=0;entryX=0.575;entryY=-0.018;entryDx=0;entryDy=0;entryPerimeter=0;" edge="1" parent="1" source="jASPlw7Dt9lBdFrN7tMw-15" target="jASPlw7Dt9lBdFrN7tMw-17">
          <mxGeometry width="160" relative="1" as="geometry">
            <mxPoint x="334" y="570" as="sourcePoint" />
            <mxPoint x="494" y="570" as="targetPoint" />
          </mxGeometry>
        </mxCell>
        <mxCell id="jASPlw7Dt9lBdFrN7tMw-48" value="" style="endArrow=block;dashed=1;endFill=0;endSize=12;html=1;rounded=0;strokeColor=#FF0000;fontSize=12;exitX=0.15;exitY=0.05;exitDx=0;exitDy=0;exitPerimeter=0;entryX=0.133;entryY=1;entryDx=0;entryDy=0;entryPerimeter=0;" edge="1" parent="1" source="jASPlw7Dt9lBdFrN7tMw-17" target="jASPlw7Dt9lBdFrN7tMw-15">
          <mxGeometry width="160" relative="1" as="geometry">
            <mxPoint x="450" y="650" as="sourcePoint" />
            <mxPoint x="610" y="650" as="targetPoint" />
          </mxGeometry>
        </mxCell>
        <mxCell id="jASPlw7Dt9lBdFrN7tMw-49" value="" style="endArrow=block;dashed=1;endFill=0;endSize=12;html=1;rounded=0;strokeColor=#FF0000;fontSize=12;exitX=0.107;exitY=-0.089;exitDx=0;exitDy=0;exitPerimeter=0;entryX=0.163;entryY=0.975;entryDx=0;entryDy=0;entryPerimeter=0;" edge="1" parent="1" source="jASPlw7Dt9lBdFrN7tMw-15" target="jASPlw7Dt9lBdFrN7tMw-12">
          <mxGeometry width="160" relative="1" as="geometry">
            <mxPoint x="150" y="390" as="sourcePoint" />
            <mxPoint x="310" y="390" as="targetPoint" />
            <Array as="points">
              <mxPoint x="176" y="310" />
              <mxPoint x="773" y="310" />
            </Array>
          </mxGeometry>
        </mxCell>
        <mxCell id="jASPlw7Dt9lBdFrN7tMw-50" value="" style="endArrow=block;dashed=1;endFill=0;endSize=12;html=1;rounded=0;strokeColor=#FF0000;fontSize=12;exitX=0.25;exitY=0;exitDx=0;exitDy=0;entryX=0.863;entryY=1.039;entryDx=0;entryDy=0;entryPerimeter=0;" edge="1" parent="1" source="jASPlw7Dt9lBdFrN7tMw-12" target="jASPlw7Dt9lBdFrN7tMw-3">
          <mxGeometry width="160" relative="1" as="geometry">
            <mxPoint x="780" y="230" as="sourcePoint" />
            <mxPoint x="740" y="140" as="targetPoint" />
            <Array as="points">
              <mxPoint x="780" y="140" />
              <mxPoint x="429" y="140" />
            </Array>
          </mxGeometry>
        </mxCell>
        <mxCell id="jASPlw7Dt9lBdFrN7tMw-51" value="" style="endArrow=block;dashed=1;endFill=0;endSize=12;html=1;rounded=0;strokeColor=#FF0000;fontSize=12;entryX=0.5;entryY=1;entryDx=0;entryDy=0;exitX=0.613;exitY=0.025;exitDx=0;exitDy=0;exitPerimeter=0;" edge="1" parent="1" source="jASPlw7Dt9lBdFrN7tMw-13" target="jASPlw7Dt9lBdFrN7tMw-2">
          <mxGeometry width="160" relative="1" as="geometry">
            <mxPoint x="1008" y="235" as="sourcePoint" />
            <mxPoint x="610" y="180" as="targetPoint" />
            <Array as="points">
              <mxPoint x="1008" y="130" />
              <mxPoint x="220" y="130" />
            </Array>
          </mxGeometry>
        </mxCell>
      </root>
    </mxGraphModel>
  </diagram>
</mxfile>
